<svg width="265" height="129" viewBox="0 0 265 129" fill="none" xmlns="http://www.w3.org/2000/svg">
<g filter="url(#filter0_d)">
<path d="M87.9584 36.6504L71.1876 83.6803H56.7708L40 36.6504H52.2492L63.9659 72.1569L75.7677 36.6504H87.9584Z" fill="white"/>
<path d="M100.186 81.0932C96.5134 79.0692 93.4632 76.092 91.3613 72.4798C89.2174 68.6906 88.0913 64.417 88.0913 60.0702C88.0913 55.7235 89.2174 51.4499 91.3613 47.6607C93.4706 44.0637 96.5198 41.1003 100.186 39.0843C103.939 37.0602 108.141 36 112.411 36C116.681 36 120.884 37.0602 124.637 39.0843C128.291 41.0925 131.319 44.0592 133.392 47.6607C135.497 51.4635 136.599 55.7343 136.593 60.0743C136.587 64.4144 135.475 68.6823 133.36 72.4798C131.282 76.0888 128.253 79.0667 124.599 81.0932C120.853 83.1159 116.657 84.1755 112.393 84.1755C108.129 84.1755 103.932 83.1159 100.186 81.0932ZM121.489 69.9825C123.758 67.4853 124.892 64.1803 124.892 60.0676C124.892 55.9549 123.758 52.6393 121.489 50.1209C119.22 47.6518 116.202 46.4173 112.435 46.4173C108.668 46.4173 105.625 47.6518 103.307 50.1209C101.038 52.5899 99.9055 55.9161 99.9091 60.0993C99.9126 64.2826 101.036 67.577 103.28 69.9825C105.549 72.4516 108.592 73.6861 112.409 73.6861C116.225 73.6861 119.245 72.4392 121.468 69.9455L121.489 69.9825Z" fill="white"/>
<path d="M174.012 51.5229C173.185 49.9858 171.904 48.7362 170.343 47.941C168.597 47.0808 166.667 46.6559 164.719 46.703C160.991 46.703 158.005 47.9216 155.761 50.3589C153.517 52.7962 152.395 56.0448 152.395 60.1046C152.395 64.4395 153.574 67.8239 155.931 70.2576C158.289 72.6914 161.532 73.9065 165.662 73.903C168.221 73.9955 170.741 73.2522 172.835 71.7867C174.871 70.2272 176.362 68.0708 177.096 65.6229H162.498V57.1576H187.529V67.808C186.603 70.839 185.049 73.644 182.967 76.0431C180.885 78.4422 178.321 80.3822 175.44 81.7387C172.112 83.2995 168.468 84.0797 164.788 84.019C160.426 84.0959 156.118 83.0438 152.289 80.9662C148.693 78.9991 145.729 76.0652 143.735 72.5009C141.723 68.6688 140.673 64.4107 140.673 60.0887C140.673 55.7667 141.723 51.5086 143.735 47.6765C145.714 44.1009 148.667 41.1522 152.257 39.1689C156.073 37.0925 160.369 36.042 164.719 36.1214C170.382 36.1214 175.154 37.4829 179.034 40.2059C182.91 42.9182 185.653 46.9454 186.746 51.5282L174.012 51.5229Z" fill="white"/>
<path d="M204.656 74.305H225V83.6803H191.586V74.9717L211.798 46.031H191.586V36.6504H225V45.359L204.656 74.305Z" fill="white"/>
</g>
<defs>
<filter id="filter0_d" x="0" y="0" width="265" height="128.175" filterUnits="userSpaceOnUse" color-interpolation-filters="sRGB">
<feFlood flood-opacity="0" result="BackgroundImageFix"/>
<feColorMatrix in="SourceAlpha" type="matrix" values="0 0 0 0 0 0 0 0 0 0 0 0 0 0 0 0 0 0 127 0" result="hardAlpha"/>
<feOffset dy="4"/>
<feGaussianBlur stdDeviation="20"/>
<feColorMatrix type="matrix" values="0 0 0 0 0.259812 0 0 0 0 0.22592 0 0 0 0 0.704167 0 0 0 1 0"/>
<feBlend mode="normal" in2="BackgroundImageFix" result="effect1_dropShadow"/>
<feBlend mode="normal" in="SourceGraphic" in2="effect1_dropShadow" result="shape"/>
</filter>
</defs>
</svg>
